<?xml version="1.0" standalone="no"?>
<!DOCTYPE svg PUBLIC "-//W3C//DTD SVG 20010904//EN"
 "http://www.w3.org/TR/2001/REC-SVG-20010904/DTD/svg10.dtd">
<svg version="1.0" xmlns="http://www.w3.org/2000/svg"
 width="512.000000pt" height="512.000000pt" viewBox="0 0 512.000000 512.000000"
 preserveAspectRatio="xMidYMid meet">

<g transform="translate(0.000000,512.000000) scale(0.100000,-0.100000)"
fill="#000000" stroke="none">
<path d="M2394 5036 c-403 -77 -705 -349 -815 -734 -36 -127 -40 -233 -37
-937 l4 -680 26 -97 c53 -196 139 -342 283 -483 143 -140 312 -230 514 -270
127 -26 345 -17 466 19 358 107 614 371 713 734 l26 97 4 680 c4 764 1 819
-55 988 -108 326 -377 578 -708 663 -124 31 -314 41 -421 20z m316 -77 c164
-26 345 -112 473 -224 124 -108 243 -301 289 -470 22 -78 22 -94 26 -780 2
-491 0 -724 -8 -780 -29 -202 -117 -380 -260 -525 -95 -97 -145 -133 -260
-191 -129 -65 -249 -91 -410 -91 -162 0 -281 26 -411 92 -119 60 -164 93 -259
190 -137 139 -218 296 -255 494 -14 73 -15 180 -13 798 4 702 4 714 26 793
101 362 398 634 759 695 71 11 229 11 303 -1z"/>
<path d="M2510 4581 c-85 -28 -151 -93 -174 -172 -23 -75 -23 -760 -1 -835 31
-104 133 -177 246 -177 113 0 218 80 249 191 6 22 10 185 10 403 0 412 -4 440
-67 510 -20 22 -55 50 -77 61 -44 22 -145 33 -186 19z m149 -89 c19 -9 48 -34
65 -55 l31 -39 3 -389 c3 -368 2 -392 -17 -434 -59 -135 -263 -135 -322 0 -19
42 -20 66 -17 434 l3 389 31 39 c39 48 87 73 144 73 25 0 60 -8 79 -18z"/>
<path d="M2492 4338 c-37 -37 3 -68 88 -68 85 0 125 31 88 68 -16 16 -160 16
-176 0z"/>
<path d="M2492 4178 c-37 -37 3 -68 88 -68 85 0 125 31 88 68 -16 16 -160 16
-176 0z"/>
<path d="M2492 4018 c-37 -37 3 -68 88 -68 85 0 125 31 88 68 -16 16 -160 16
-176 0z"/>
<path d="M2492 3858 c-37 -37 3 -68 88 -68 85 0 125 31 88 68 -16 16 -160 16
-176 0z"/>
<path d="M2492 3698 c-37 -37 3 -68 88 -68 85 0 125 31 88 68 -16 16 -160 16
-176 0z"/>
<path d="M1675 1775 c-47 -17 -82 -57 -91 -102 -14 -76 -19 -72 464 -555 424
-423 460 -457 498 -463 28 -4 53 -1 75 8 21 9 208 190 471 453 379 381 437
444 443 476 21 114 -96 203 -198 152 -18 -9 -197 -181 -400 -382 l-367 -367
-393 393 c-272 271 -399 392 -414 392 -12 0 -27 2 -35 5 -7 2 -31 -2 -53 -10z
m475 -470 c223 -223 412 -405 420 -405 8 0 190 176 405 390 334 333 395 390
420 390 36 0 65 -26 65 -59 0 -37 -853 -891 -890 -891 -19 0 -121 96 -467 443
-368 368 -443 447 -443 470 0 33 32 67 62 67 16 0 137 -115 428 -405z"/>
<path d="M1646 1180 c-55 -36 -78 -106 -56 -167 14 -37 886 -911 927 -929 42
-18 77 -18 116 2 44 22 864 840 888 886 23 44 24 77 5 122 -27 64 -102 99
-168 77 -23 -8 -145 -123 -403 -381 -203 -203 -374 -370 -380 -370 -6 0 -179
169 -385 376 -206 206 -387 382 -402 390 -39 20 -107 18 -142 -6z m504 -455
c257 -257 412 -405 425 -405 12 0 162 143 410 390 255 255 397 390 410 390 36
0 65 -28 65 -63 0 -29 -43 -75 -428 -459 -372 -373 -431 -428 -457 -428 -26 0
-87 57 -472 442 -449 449 -462 464 -435 504 10 15 44 33 62 34 8 0 197 -182
420 -405z"/>
</g>
</svg>
